<svg xmlns="http://www.w3.org/2000/svg" xmlns:xlink="http://www.w3.org/1999/xlink" xmlns:lucid="lucid" width="1362" height="202.5"><g transform="translate(-79 2201.5)" lucid:page-tab-id="0_0"><path d="M0-2500h1500v1000H0z" fill="#fff"/><path d="M200-2160c0 22.1-17.9 40-40 40s-40-17.9-40-40 17.9-40 40-40 40 17.9 40 40z" stroke="#ced4db" stroke-width="3" fill="#fff"/><use xlink:href="#a" transform="matrix(1,0,0,1,125,-2195) translate(30.20941840277778 43.40277777777778)"/><path d="M400-2160c0 22.1-17.9 40-40 40s-40-17.9-40-40 17.9-40 40-40 40 17.9 40 40z" stroke="#ced4db" stroke-width="3" fill="#fff"/><use xlink:href="#b" transform="matrix(1,0,0,1,325,-2195) translate(28.001302083333336 43.40277777777778)"/><path d="M80-2074a6 6 0 0 1 6-6h148a6 6 0 0 1 6 6v68a6 6 0 0 1-6 6H86a6 6 0 0 1-6-6z" stroke="#000" stroke-opacity="0" stroke-width="2" fill="#dfe3e8"/><use xlink:href="#c" transform="matrix(1,0,0,1,85,-2075) translate(7.584635416666657 19.479166666666668)"/><use xlink:href="#d" transform="matrix(1,0,0,1,85,-2075) translate(50.16927083333333 19.479166666666668)"/><use xlink:href="#e" transform="matrix(1,0,0,1,85,-2075) translate(19.07552083333333 38.83854166666667)"/><use xlink:href="#f" transform="matrix(1,0,0,1,85,-2075) translate(72.3046875 38.83854166666667)"/><use xlink:href="#g" transform="matrix(1,0,0,1,85,-2075) translate(99.90885416666667 38.83854166666667)"/><use xlink:href="#h" transform="matrix(1,0,0,1,85,-2075) translate(53.28125 58.19791666666667)"/><path d="M280-2074a6 6 0 0 1 6-6h148a6 6 0 0 1 6 6v68a6 6 0 0 1-6 6H286a6 6 0 0 1-6-6z" stroke="#000" stroke-opacity="0" stroke-width="2" fill="#dfe3e8"/><use xlink:href="#i" transform="matrix(1,0,0,1,285,-2075) translate(10.042317708333329 19.479166666666668)"/><use xlink:href="#j" transform="matrix(1,0,0,1,285,-2075) translate(57.30143229166667 19.479166666666668)"/><use xlink:href="#k" transform="matrix(1,0,0,1,285,-2075) translate(14.345703124999993 38.83854166666667)"/><use xlink:href="#l" transform="matrix(1,0,0,1,285,-2075) translate(59.208984375 38.83854166666667)"/><use xlink:href="#m" transform="matrix(1,0,0,1,285,-2075) translate(105.595703125 38.83854166666667)"/><use xlink:href="#n" transform="matrix(1,0,0,1,285,-2075) translate(41.220703125 58.19791666666667)"/><path d="M203-2160h94.88" stroke="#ced4db" stroke-width="3" fill="none"/><path d="M203.04-2158.53h-1.63l.1-1.45-.05-1.5h1.6z" stroke="#ced4db" stroke-width=".05" fill="#ced4db"/><path d="M313.64-2160l-14.26 4.64v-9.28z" stroke="#ced4db" stroke-width="3" fill="#ced4db"/><path d="M403-2160h94.88" stroke="#ced4db" stroke-width="3" fill="none"/><path d="M403.04-2158.53h-1.63l.1-1.45-.05-1.5h1.6z" stroke="#ced4db" stroke-width=".05" fill="#ced4db"/><path d="M513.64-2160l-14.26 4.64v-9.28z" stroke="#ced4db" stroke-width="3" fill="#ced4db"/><path d="M600-2160c0 22.1-17.9 40-40 40s-40-17.9-40-40 17.9-40 40-40 40 17.9 40 40z" stroke="#ced4db" stroke-width="3" fill="#fff"/><use xlink:href="#o" transform="matrix(1,0,0,1,525,-2195) translate(27.82769097222222 43.40277777777778)"/><path d="M800-2160c0 22.1-17.9 40-40 40s-40-17.9-40-40 17.9-40 40-40 40 17.9 40 40z" stroke="#ced4db" stroke-width="3" fill="#fff"/><use xlink:href="#p" transform="matrix(1,0,0,1,725,-2195) translate(27.48589409722222 43.40277777777778)"/><path d="M1000-2160c0 22.1-17.9 40-40 40s-40-17.9-40-40 17.9-40 40-40 40 17.9 40 40z" stroke="#000" stroke-opacity="0" stroke-width="3" fill="#fc9432"/><use xlink:href="#q" transform="matrix(1,0,0,1,925,-2195) translate(27.89822048611111 43.40277777777778)"/><path d="M1200-2160c0 22.1-17.9 40-40 40s-40-17.9-40-40 17.9-40 40-40 40 17.9 40 40z" stroke="#ced4db" stroke-width="3" fill="#fff"/><use xlink:href="#r" transform="matrix(1,0,0,1,1125,-2195) translate(27.784288194444443 43.40277777777778)"/><path d="M603-2160h94.88" stroke="#ced4db" stroke-width="3" fill="none"/><path d="M603.04-2158.53h-1.63l.1-1.45-.05-1.5h1.6z" stroke="#ced4db" stroke-width=".05" fill="#ced4db"/><path d="M713.64-2160l-14.26 4.64v-9.28z" stroke="#ced4db" stroke-width="3" fill="#ced4db"/><path d="M803-2160h96.38" stroke="#ced4db" stroke-width="3" fill="none"/><path d="M803.04-2158.53h-1.63l.1-1.45-.05-1.5h1.6z" stroke="#ced4db" stroke-width=".05" fill="#ced4db"/><path d="M915.15-2160l-14.27 4.64v-9.28z" stroke="#ced4db" stroke-width="3" fill="#ced4db"/><path d="M1001.38-2158.05h57.8a.04.04 0 0 1 .04.04.04.04 0 0 0 .04.03h38.7" stroke="#ced4db" stroke-width="3" fill="none"/><path d="M1001.42-2156.57h-1.63l.17-2.95h1.45z" stroke="#ced4db" stroke-width=".05" fill="#ced4db"/><path d="M1113.72-2157.97l-14.27 4.63v-9.27z" stroke="#ced4db" stroke-width="3" fill="#ced4db"/><path d="M1400-2160c0 22.1-17.9 40-40 40s-40-17.9-40-40 17.9-40 40-40 40 17.9 40 40z" stroke="#ced4db" stroke-width="3" fill="#fff"/><use xlink:href="#s" transform="matrix(1,0,0,1,1325,-2195) translate(28.538411458333336 43.40277777777778)"/><path d="M1203-2160h94.88" stroke="#ced4db" stroke-width="3" fill="none"/><path d="M1203.04-2158.53h-1.63l.1-1.45-.05-1.5h1.6z" stroke="#ced4db" stroke-width=".05" fill="#ced4db"/><path d="M1313.64-2160l-14.26 4.64v-9.28z" stroke="#ced4db" stroke-width="3" fill="#ced4db"/><path d="M480-2074a6 6 0 0 1 6-6h148a6 6 0 0 1 6 6v68a6 6 0 0 1-6 6H486a6 6 0 0 1-6-6z" stroke="#000" stroke-opacity="0" stroke-width="2" fill="#dfe3e8"/><g><use xlink:href="#t" transform="matrix(1,0,0,1,485,-2075) translate(12.379557291666664 19.479166666666668)"/><use xlink:href="#j" transform="matrix(1,0,0,1,485,-2075) translate(54.964192708333336 19.479166666666668)"/><use xlink:href="#k" transform="matrix(1,0,0,1,485,-2075) translate(16.9140625 38.83854166666667)"/><use xlink:href="#u" transform="matrix(1,0,0,1,485,-2075) translate(61.77734375000001 38.83854166666667)"/><use xlink:href="#v" transform="matrix(1,0,0,1,485,-2075) translate(51.71549479166667 58.19791666666667)"/></g><path d="M680-2074a6 6 0 0 1 6-6h148a6 6 0 0 1 6 6v68a6 6 0 0 1-6 6H686a6 6 0 0 1-6-6z" stroke="#000" stroke-opacity="0" stroke-width="2" fill="#dfe3e8"/><g><use xlink:href="#t" transform="matrix(1,0,0,1,685,-2075) translate(35.27669270833333 30.416666666666668)"/><use xlink:href="#w" transform="matrix(1,0,0,1,685,-2075) translate(77.861328125 30.416666666666668)"/><use xlink:href="#x" transform="matrix(1,0,0,1,685,-2075) translate(35.70312499999999 49.77604166666667)"/></g><path d="M880-2074a6 6 0 0 1 6-6h148a6 6 0 0 1 6 6v68a6 6 0 0 1-6 6H886a6 6 0 0 1-6-6z" stroke="#000" stroke-opacity="0" stroke-width="2" fill="#fc9432"/><g><use xlink:href="#y" transform="matrix(1,0,0,1,885,-2075) translate(37.750651041666664 30.416666666666668)"/><use xlink:href="#z" transform="matrix(1,0,0,1,885,-2075) translate(37.027994791666664 49.77604166666667)"/></g><path d="M1080-2074a6 6 0 0 1 6-6h148a6 6 0 0 1 6 6v68a6 6 0 0 1-6 6h-148a6 6 0 0 1-6-6z" stroke="#000" stroke-opacity="0" stroke-width="2" fill="#dfe3e8"/><g><use xlink:href="#t" transform="matrix(1,0,0,1,1085,-2075) translate(1.8033854166666572 39.16666666666667)"/><use xlink:href="#A" transform="matrix(1,0,0,1,1085,-2075) translate(44.38802083333333 39.16666666666667)"/><use xlink:href="#B" transform="matrix(1,0,0,1,1085,-2075) translate(108.74348958333333 39.16666666666667)"/></g><path d="M1280-2074a6 6 0 0 1 6-6h148a6 6 0 0 1 6 6v68a6 6 0 0 1-6 6h-148a6 6 0 0 1-6-6z" stroke="#000" stroke-opacity="0" stroke-width="2" fill="#dfe3e8"/><g><use xlink:href="#C" transform="matrix(1,0,0,1,1285,-2075) translate(8.26171875 30.416666666666668)"/><use xlink:href="#D" transform="matrix(1,0,0,1,1285,-2075) translate(54.89583333333334 30.416666666666668)"/><use xlink:href="#E" transform="matrix(1,0,0,1,1285,-2075) translate(103.67187500000001 30.416666666666668)"/><use xlink:href="#F" transform="matrix(1,0,0,1,1285,-2075) translate(19.18294270833333 49.77604166666667)"/><use xlink:href="#G" transform="matrix(1,0,0,1,1285,-2075) translate(46.787109375 49.77604166666667)"/><use xlink:href="#H" transform="matrix(1,0,0,1,1285,-2075) translate(95.02278645833333 49.77604166666667)"/></g><defs><path d="M749-1490V0H444v-1221h-10L93-980v-279l329-231h327" id="I"/><use transform="matrix(0.010850694444444444,0,0,0.010850694444444444,0,0)" xlink:href="#I" id="a"/><path d="M124 0v-220l528-495c135-132 210-216 210-336 0-133-98-215-231-215-139 0-229 88-229 233H110c0-290 214-477 523-477 315 0 525 182 525 440 0 167-80 305-385 586L548-262v11h630V0H124" id="J"/><use transform="matrix(0.010850694444444444,0,0,0.010850694444444444,0,0)" xlink:href="#J" id="b"/><path fill="#3a414a" d="M440-1490V0H135v-1490h305" id="K"/><path fill="#3a414a" d="M428-647V0H128v-1118h283l4 231c63-156 176-245 348-245 232 0 384 159 384 421V0H847v-659c0-139-76-222-202-222-128 0-217 86-217 234" id="L"/><path fill="#3a414a" d="M572 22C302 22 117-98 78-306l279-48c29 105 101 156 224 156 114 0 185-48 185-115 0-118-228-130-337-155-215-49-322-150-322-317 0-215 187-347 470-347 265 0 424 116 466 298l-266 47c-24-76-87-130-196-130-98 0-174 46-174 113 0 56 38 95 144 117l201 40c216 44 320 143 320 302 0 220-207 367-500 367" id="M"/><path fill="#3a414a" d="M683-1118v229H474v562c0 71 29 104 102 104 23 0 73-7 95-13l43 225C647 9 580 16 520 16 296 16 174-96 174-301v-588H20v-229h154v-266h300v266h209" id="N"/><path fill="#3a414a" d="M440 22C227 22 68-92 68-313c0-250 202-322 422-343 195-21 271-24 271-105 0-95-63-149-175-149-116 0-187 57-211 129l-275-46c57-194 237-305 487-305 240 0 474 108 474 379V0H777v-155h-10C713-51 605 22 440 22zm85-211c140 0 238-93 238-211v-121c-37 26-156 42-222 51-111 16-185 59-185 149 0 87 70 132 169 132" id="O"/><path fill="#3a414a" d="M428-1490V0H128v-1490h300" id="P"/><g id="c"><use transform="matrix(0.006510416666666667,0,0,0.006510416666666667,0,0)" xlink:href="#K"/><use transform="matrix(0.006510416666666667,0,0,0.006510416666666667,3.7434895833333335,0)" xlink:href="#L"/><use transform="matrix(0.006510416666666667,0,0,0.006510416666666667,12.044270833333334,0)" xlink:href="#M"/><use transform="matrix(0.006510416666666667,0,0,0.006510416666666667,19.51171875,0)" xlink:href="#N"/><use transform="matrix(0.006510416666666667,0,0,0.006510416666666667,24.459635416666668,0)" xlink:href="#O"/><use transform="matrix(0.006510416666666667,0,0,0.006510416666666667,32.200520833333336,0)" xlink:href="#P"/><use transform="matrix(0.006510416666666667,0,0,0.006510416666666667,35.813802083333336,0)" xlink:href="#P"/></g><path fill="#3a414a" d="M135 0v-1490h997v253H440v360h640v249H440v375h694V0H135" id="Q"/><path fill="#3a414a" d="M128 0v-1118h300V0H128zm150-1264c-91 0-165-68-165-154 0-85 74-154 165-154 90 0 165 69 165 154 0 86-75 154-165 154" id="R"/><path fill="#3a414a" d="M628 22C291 22 81-210 81-554c0-346 210-578 547-578 265 0 455 142 497 372l-279 52c-25-116-99-188-215-188-160 0-244 139-244 341 0 200 84 341 244 341 116 0 193-74 217-195l279 51C1085-123 896 22 628 22" id="S"/><path fill="#3a414a" d="M633 22C291 22 81-200 81-553c0-345 210-579 537-579 292 0 525 185 525 567v84H378c7 183 109 277 260 277 105 0 184-46 216-132l272 51C1071-99 893 22 633 22zM380-669h474c-15-146-94-237-233-237-143 0-229 99-241 237" id="T"/><path fill="#3a414a" d="M128 0v-1118h290v195h12c54-169 184-238 367-200v268c-27-8-86-15-130-15-138 0-239 95-239 234V0H128" id="U"/><path fill="#3a414a" d="M428-647V0H128v-1490h294v586c65-146 175-228 341-228 232 0 385 159 385 421V0H847v-659c0-139-76-222-202-222-128 0-217 86-217 234" id="V"/><path fill="#3a414a" d="M119 395l88-620h300L323 395H119" id="W"/><g id="d"><use transform="matrix(0.006510416666666667,0,0,0.006510416666666667,0,0)" xlink:href="#Q"/><use transform="matrix(0.006510416666666667,0,0,0.006510416666666667,8.098958333333334,0)" xlink:href="#P"/><use transform="matrix(0.006510416666666667,0,0,0.006510416666666667,11.712239583333334,0)" xlink:href="#O"/><use transform="matrix(0.006510416666666667,0,0,0.006510416666666667,19.453125,0)" xlink:href="#M"/><use transform="matrix(0.006510416666666667,0,0,0.006510416666666667,26.920572916666668,0)" xlink:href="#N"/><use transform="matrix(0.006510416666666667,0,0,0.006510416666666667,31.803385416666668,0)" xlink:href="#R"/><use transform="matrix(0.006510416666666667,0,0,0.006510416666666667,35.41666666666667,0)" xlink:href="#S"/><use transform="matrix(0.006510416666666667,0,0,0.006510416666666667,43.26171875000001,0)" xlink:href="#M"/><use transform="matrix(0.006510416666666667,0,0,0.006510416666666667,50.72916666666667,0)" xlink:href="#T"/><use transform="matrix(0.006510416666666667,0,0,0.006510416666666667,58.80208333333335,0)" xlink:href="#O"/><use transform="matrix(0.006510416666666667,0,0,0.006510416666666667,66.54296875000001,0)" xlink:href="#U"/><use transform="matrix(0.006510416666666667,0,0,0.006510416666666667,71.64713541666669,0)" xlink:href="#S"/><use transform="matrix(0.006510416666666667,0,0,0.006510416666666667,79.49218750000001,0)" xlink:href="#V"/><use transform="matrix(0.006510416666666667,0,0,0.006510416666666667,87.79296875000001,0)" xlink:href="#W"/></g><path fill="#3a414a" d="M135 0v-1490h305c1 251 0 501-5 746 157-254 405-512 598-746h373L849-845 1422 0h-361L638-644 440-426V0H135" id="X"/><path fill="#3a414a" d="M754 19C571 19 479-89 437-179h-14V0H128v-1490h300v560h9c41-89 129-202 319-202 248 0 453 193 453 575 0 372-197 576-455 576zm-92-241c156 0 240-139 240-336 0-196-83-334-240-334-154 0-241 131-241 334 0 202 88 336 241 336" id="Y"/><g id="e"><use transform="matrix(0.006510416666666667,0,0,0.006510416666666667,0,0)" xlink:href="#X"/><use transform="matrix(0.006510416666666667,0,0,0.006510416666666667,9.6875,0)" xlink:href="#R"/><use transform="matrix(0.006510416666666667,0,0,0.006510416666666667,13.30078125,0)" xlink:href="#Y"/><use transform="matrix(0.006510416666666667,0,0,0.006510416666666667,21.8359375,0)" xlink:href="#O"/><use transform="matrix(0.006510416666666667,0,0,0.006510416666666667,29.576822916666668,0)" xlink:href="#L"/><use transform="matrix(0.006510416666666667,0,0,0.006510416666666667,37.87760416666667,0)" xlink:href="#O"/><use transform="matrix(0.006510416666666667,0,0,0.006510416666666667,45.618489583333336,0)" xlink:href="#W"/></g><path fill="#3a414a" d="M537 19C279 19 81-185 81-557c0-382 206-575 454-575 190 0 278 113 318 202h10v-560h300V0H868v-179h-15C812-89 719 19 537 19zm92-241c153 0 240-134 240-336 0-203-86-334-240-334-158 0-240 138-240 334 0 197 84 336 240 336" id="Z"/><g id="f"><use transform="matrix(0.006510416666666667,0,0,0.006510416666666667,0,0)" xlink:href="#O"/><use transform="matrix(0.006510416666666667,0,0,0.006510416666666667,7.740885416666667,0)" xlink:href="#L"/><use transform="matrix(0.006510416666666667,0,0,0.006510416666666667,16.041666666666668,0)" xlink:href="#Z"/></g><path fill="#3a414a" d="M49 0l509-1490h400L1480 0h-339l-115-346H497L386 0H49zm524-585h374c-75-213-124-402-192-666-66 268-110 453-182 666" id="aa"/><path fill="#3a414a" d="M135 0v-1490h581c339 0 533 210 533 503 0 295-197 500-540 500H440V0H135zm305-733h220c186 0 274-104 274-254s-88-251-275-251H440v505" id="ab"/><path fill="#3a414a" d="M135 0v-1490h468l242 684c30 94 76 293 111 455 34-161 80-360 110-455l238-684h470V0h-307c0-447-3-765 11-1227-122 503-246 788-395 1227H826C676-435 552-717 427-1215c15 453 11 775 11 1215H135" id="ac"/><g id="g"><use transform="matrix(0.006510416666666667,0,0,0.006510416666666667,0,0)" xlink:href="#aa"/><use transform="matrix(0.006510416666666667,0,0,0.006510416666666667,9.954427083333334,0)" xlink:href="#ab"/><use transform="matrix(0.006510416666666667,0,0,0.006510416666666667,18.59375,0)" xlink:href="#ac"/></g><path fill="#3a414a" d="M681 22C323 22 94-145 85-462h297c10 151 131 226 296 226 163 0 271-77 271-190 0-102-95-149-257-189l-164-41c-252-61-403-188-403-405 0-269 236-449 560-449 330 0 546 183 551 445H941c-11-119-106-188-259-188-156 0-244 72-244 172-3 156 226 185 373 221 250 61 445 186 445 436 0 271-213 446-575 446" id="ad"/><path fill="#3a414a" d="M443 0L31-1118h319c90 293 199 572 268 885 66-313 175-593 264-885h315L784 0H443" id="ae"/><g id="h"><use transform="matrix(0.006510416666666667,0,0,0.006510416666666667,0,0)" xlink:href="#ad"/><use transform="matrix(0.006510416666666667,0,0,0.006510416666666667,8.73046875,0)" xlink:href="#T"/><use transform="matrix(0.006510416666666667,0,0,0.006510416666666667,16.673177083333336,0)" xlink:href="#U"/><use transform="matrix(0.006510416666666667,0,0,0.006510416666666667,22.311197916666668,0)" xlink:href="#ae"/><use transform="matrix(0.006510416666666667,0,0,0.006510416666666667,30.065104166666668,0)" xlink:href="#T"/><use transform="matrix(0.006510416666666667,0,0,0.006510416666666667,38.0078125,0)" xlink:href="#U"/></g><g id="i"><use transform="matrix(0.006510416666666667,0,0,0.006510416666666667,0,0)" xlink:href="#Q"/><use transform="matrix(0.006510416666666667,0,0,0.006510416666666667,8.098958333333334,0)" xlink:href="#L"/><use transform="matrix(0.006510416666666667,0,0,0.006510416666666667,16.399739583333336,0)" xlink:href="#O"/><use transform="matrix(0.006510416666666667,0,0,0.006510416666666667,24.140625000000004,0)" xlink:href="#Y"/><use transform="matrix(0.006510416666666667,0,0,0.006510416666666667,32.54557291666667,0)" xlink:href="#P"/><use transform="matrix(0.006510416666666667,0,0,0.006510416666666667,36.15885416666667,0)" xlink:href="#T"/></g><path fill="#3a414a" d="M628 22C291 22 81-210 81-554c0-346 210-578 547-578 336 0 547 232 547 578 0 344-211 576-547 576zm0-236c160 0 242-146 242-341 0-197-82-341-242-341S387-753 387-555c0 195 81 341 241 341" id="af"/><path fill="#3a414a" d="M128 0v-1118h278l12 217c60-163 185-234 319-234 143 0 236 81 288 251 63-172 205-251 359-251 205 0 357 138 357 381V0h-301v-697c0-126-76-187-177-187-114 0-184 79-184 196V0H789v-705c0-109-72-179-174-179-106 0-187 74-187 208V0H128" id="ag"/><g id="j"><use transform="matrix(0.006510416666666667,0,0,0.006510416666666667,0,0)" xlink:href="#Q"/><use transform="matrix(0.006510416666666667,0,0,0.006510416666666667,8.098958333333334,0)" xlink:href="#L"/><use transform="matrix(0.006510416666666667,0,0,0.006510416666666667,16.171875,0)" xlink:href="#ae"/><use transform="matrix(0.006510416666666667,0,0,0.006510416666666667,24.166666666666668,0)" xlink:href="#R"/><use transform="matrix(0.006510416666666667,0,0,0.006510416666666667,27.779947916666668,0)" xlink:href="#U"/><use transform="matrix(0.006510416666666667,0,0,0.006510416666666667,32.884114583333336,0)" xlink:href="#af"/><use transform="matrix(0.006510416666666667,0,0,0.006510416666666667,41.06119791666667,0)" xlink:href="#L"/><use transform="matrix(0.006510416666666667,0,0,0.006510416666666667,49.36197916666667,0)" xlink:href="#ag"/><use transform="matrix(0.006510416666666667,0,0,0.006510416666666667,61.52994791666667,0)" xlink:href="#T"/><use transform="matrix(0.006510416666666667,0,0,0.006510416666666667,69.47265625,0)" xlink:href="#L"/><use transform="matrix(0.006510416666666667,0,0,0.006510416666666667,77.7734375,0)" xlink:href="#N"/></g><path fill="#3a414a" d="M449 0L49-1490h333c89 395 194 758 253 1185 65-426 176-790 269-1185h317c93 394 201 758 268 1181 60-425 164-788 253-1181h334L1675 0h-348c-90-376-204-711-266-1118C1004-714 886-373 798 0H449" id="ah"/><g id="k"><use transform="matrix(0.006510416666666667,0,0,0.006510416666666667,0,0)" xlink:href="#ah"/><use transform="matrix(0.006510416666666667,0,0,0.006510416666666667,13.066406250000002,0)" xlink:href="#O"/><use transform="matrix(0.006510416666666667,0,0,0.006510416666666667,20.807291666666668,0)" xlink:href="#N"/><use transform="matrix(0.006510416666666667,0,0,0.006510416666666667,25.559895833333336,0)" xlink:href="#S"/><use transform="matrix(0.006510416666666667,0,0,0.006510416666666667,33.40494791666667,0)" xlink:href="#V"/></g><path fill="#3a414a" d="M768-1560L288 224H28l480-1784h260" id="ai"/><g id="l"><use transform="matrix(0.006510416666666667,0,0,0.006510416666666667,0,0)" xlink:href="#O"/><use transform="matrix(0.006510416666666667,0,0,0.006510416666666667,7.740885416666667,0)" xlink:href="#L"/><use transform="matrix(0.006510416666666667,0,0,0.006510416666666667,16.041666666666668,0)" xlink:href="#Z"/><use transform="matrix(0.006510416666666667,0,0,0.006510416666666667,24.446614583333336,0)" xlink:href="#ai"/><use transform="matrix(0.006510416666666667,0,0,0.006510416666666667,29.622395833333336,0)" xlink:href="#af"/><use transform="matrix(0.006510416666666667,0,0,0.006510416666666667,37.79947916666667,0)" xlink:href="#U"/></g><path fill="#3a414a" d="M659 0H135v-1490h529c448 0 721 280 721 744 0 466-273 746-726 746zM440-263h204c287 0 437-148 437-483 0-333-150-481-435-481H440v964" id="aj"/><g id="m"><use transform="matrix(0.006510416666666667,0,0,0.006510416666666667,0,0)" xlink:href="#aj"/><use transform="matrix(0.006510416666666667,0,0,0.006510416666666667,9.62890625,0)" xlink:href="#O"/><use transform="matrix(0.006510416666666667,0,0,0.006510416666666667,17.369791666666668,0)" xlink:href="#N"/><use transform="matrix(0.006510416666666667,0,0,0.006510416666666667,22.317708333333336,0)" xlink:href="#O"/></g><path fill="#3a414a" d="M795 20C377 20 94-272 94-743c0-483 302-767 694-767 335 0 593 206 635 500h-310c-42-142-154-229-320-229-230 0-389 177-389 493s154 495 393 495c212 0 340-120 345-311H818v-232h620v186c0 391-269 628-643 628" id="ak"/><path fill="#3a414a" d="M513 14c-232 0-385-159-385-421v-711h300v659c0 139 76 222 202 222 127 0 217-86 217-234v-647h301V0H864l-4-232C797-74 683 14 513 14" id="al"/><g id="n"><use transform="matrix(0.006510416666666667,0,0,0.006510416666666667,0,0)" xlink:href="#ak"/><use transform="matrix(0.006510416666666667,0,0,0.006510416666666667,10.006510416666668,0)" xlink:href="#U"/><use transform="matrix(0.006510416666666667,0,0,0.006510416666666667,15.533854166666668,0)" xlink:href="#R"/><use transform="matrix(0.006510416666666667,0,0,0.006510416666666667,19.147135416666668,0)" xlink:href="#Z"/><use transform="matrix(0.006510416666666667,0,0,0.006510416666666667,27.552083333333336,0)" xlink:href="#ai"/><use transform="matrix(0.006510416666666667,0,0,0.006510416666666667,32.40234375,0)" xlink:href="#aa"/><use transform="matrix(0.006510416666666667,0,0,0.006510416666666667,42.356770833333336,0)" xlink:href="#al"/><use transform="matrix(0.006510416666666667,0,0,0.006510416666666667,50.657552083333336,0)" xlink:href="#Z"/><use transform="matrix(0.006510416666666667,0,0,0.006510416666666667,59.0625,0)" xlink:href="#R"/><use transform="matrix(0.006510416666666667,0,0,0.006510416666666667,62.67578125,0)" xlink:href="#N"/></g><path d="M659 20C335 20 103-159 99-418h307c5 112 113 185 254 185 147 0 250-83 250-204 0-123-105-209-278-209H494v-227h138c145 0 246-81 246-200 0-115-87-193-216-193-130 0-237 73-240 189H128c4-255 233-433 536-433 306 0 510 185 510 418 0 167-114 285-279 317v11c217 29 333 162 333 347 0 254-237 437-569 437" id="am"/><use transform="matrix(0.010850694444444444,0,0,0.010850694444444444,0,0)" xlink:href="#am" id="o"/><path d="M101-265v-241l623-984h383v979h186v246h-186V0H814v-265H101zm719-246v-643h-12L409-523v12h411" id="an"/><use transform="matrix(0.010850694444444444,0,0,0.010850694444444444,0,0)" xlink:href="#an" id="p"/><path fill="#fff" d="M664 20c-306 0-529-183-535-438h297c6 117 110 196 238 196 149 0 255-108 255-266 0-159-108-270-261-270-89 0-178 39-224 98l-274-48 72-782h901v252H485l-39 377h8c53-72 165-124 294-124 269 0 467 204 467 490 0 300-224 515-551 515" id="ao"/><use transform="matrix(0.010850694444444444,0,0,0.010850694444444444,0,0)" xlink:href="#ao" id="q"/><path d="M684 20C381 20 94-164 94-710c0-501 235-800 601-800 293 0 496 188 526 433H921c-25-105-108-170-226-170-197 0-301 182-301 476h10c67-130 211-208 374-208 263 0 459 201 459 481 0 301-224 518-553 518zm-2-242c147 0 258-116 258-268 0-150-108-266-256-266-146 0-259 121-259 267 0 147 109 267 257 267" id="ap"/><use transform="matrix(0.010850694444444444,0,0,0.010850694444444444,0,0)" xlink:href="#ap" id="r"/><path d="M177 0l620-1228v-10H75v-252h1041v256L494 0H177" id="aq"/><use transform="matrix(0.010850694444444444,0,0,0.010850694444444444,0,0)" xlink:href="#aq" id="s"/><g id="t"><use transform="matrix(0.006510416666666667,0,0,0.006510416666666667,0,0)" xlink:href="#K"/><use transform="matrix(0.006510416666666667,0,0,0.006510416666666667,3.7434895833333335,0)" xlink:href="#L"/><use transform="matrix(0.006510416666666667,0,0,0.006510416666666667,12.044270833333334,0)" xlink:href="#M"/><use transform="matrix(0.006510416666666667,0,0,0.006510416666666667,19.51171875,0)" xlink:href="#N"/><use transform="matrix(0.006510416666666667,0,0,0.006510416666666667,24.459635416666668,0)" xlink:href="#O"/><use transform="matrix(0.006510416666666667,0,0,0.006510416666666667,32.200520833333336,0)" xlink:href="#P"/><use transform="matrix(0.006510416666666667,0,0,0.006510416666666667,35.813802083333336,0)" xlink:href="#P"/></g><path fill="#3a414a" d="M625 442c-280 0-454-114-503-274l258-72c28 63 97 128 243 128 153 0 246-69 246-216v-206h-23C805-108 717-16 536-16 284-16 81-191 81-561c0-378 208-571 456-571 188 0 280 113 321 202h13v-188h295V-9c0 303-226 451-541 451zm5-686c153 0 240-119 240-319 0-198-86-329-240-329-158 0-241 137-241 329 0 195 85 319 241 319" id="ar"/><g id="u"><use transform="matrix(0.006510416666666667,0,0,0.006510416666666667,0,0)" xlink:href="#ac"/><use transform="matrix(0.006510416666666667,0,0,0.006510416666666667,12.421875,0)" xlink:href="#af"/><use transform="matrix(0.006510416666666667,0,0,0.006510416666666667,20.598958333333336,0)" xlink:href="#L"/><use transform="matrix(0.006510416666666667,0,0,0.006510416666666667,28.899739583333336,0)" xlink:href="#R"/><use transform="matrix(0.006510416666666667,0,0,0.006510416666666667,32.513020833333336,0)" xlink:href="#N"/><use transform="matrix(0.006510416666666667,0,0,0.006510416666666667,37.265625,0)" xlink:href="#af"/><use transform="matrix(0.006510416666666667,0,0,0.006510416666666667,45.442708333333336,0)" xlink:href="#U"/><use transform="matrix(0.006510416666666667,0,0,0.006510416666666667,50.970052083333336,0)" xlink:href="#R"/><use transform="matrix(0.006510416666666667,0,0,0.006510416666666667,54.583333333333336,0)" xlink:href="#L"/><use transform="matrix(0.006510416666666667,0,0,0.006510416666666667,62.884114583333336,0)" xlink:href="#ar"/></g><g id="v"><use transform="matrix(0.006510416666666667,0,0,0.006510416666666667,0,0)" xlink:href="#aa"/><use transform="matrix(0.006510416666666667,0,0,0.006510416666666667,9.6484375,0)" xlink:href="#ar"/><use transform="matrix(0.006510416666666667,0,0,0.006510416666666667,18.072916666666668,0)" xlink:href="#T"/><use transform="matrix(0.006510416666666667,0,0,0.006510416666666667,26.015625,0)" xlink:href="#L"/><use transform="matrix(0.006510416666666667,0,0,0.006510416666666667,34.31640625,0)" xlink:href="#N"/><use transform="matrix(0.006510416666666667,0,0,0.006510416666666667,39.1015625,0)" xlink:href="#M"/></g><path fill="#3a414a" d="M789 20C394 20 94-260 94-744c0-487 300-766 695-766s695 279 695 766c0 485-300 764-695 764zm0-271c231 0 385-174 385-493 0-321-154-495-385-495s-385 175-385 495c0 319 154 493 385 493" id="as"/><g id="w"><use transform="matrix(0.006510416666666667,0,0,0.006510416666666667,0,0)" xlink:href="#as"/><use transform="matrix(0.006510416666666667,0,0,0.006510416666666667,10.2734375,0)" xlink:href="#N"/><use transform="matrix(0.006510416666666667,0,0,0.006510416666666667,15.188802083333334,0)" xlink:href="#V"/><use transform="matrix(0.006510416666666667,0,0,0.006510416666666667,23.489583333333336,0)" xlink:href="#T"/><use transform="matrix(0.006510416666666667,0,0,0.006510416666666667,31.432291666666675,0)" xlink:href="#U"/></g><g id="x"><use transform="matrix(0.006510416666666667,0,0,0.006510416666666667,0,0)" xlink:href="#K"/><use transform="matrix(0.006510416666666667,0,0,0.006510416666666667,3.7434895833333335,0)" xlink:href="#L"/><use transform="matrix(0.006510416666666667,0,0,0.006510416666666667,12.044270833333334,0)" xlink:href="#N"/><use transform="matrix(0.006510416666666667,0,0,0.006510416666666667,16.796875,0)" xlink:href="#T"/><use transform="matrix(0.006510416666666667,0,0,0.006510416666666667,24.739583333333336,0)" xlink:href="#ar"/><use transform="matrix(0.006510416666666667,0,0,0.006510416666666667,33.1640625,0)" xlink:href="#U"/><use transform="matrix(0.006510416666666667,0,0,0.006510416666666667,38.411458333333336,0)" xlink:href="#O"/><use transform="matrix(0.006510416666666667,0,0,0.006510416666666667,46.15234375,0)" xlink:href="#N"/><use transform="matrix(0.006510416666666667,0,0,0.006510416666666667,51.03515625,0)" xlink:href="#R"/><use transform="matrix(0.006510416666666667,0,0,0.006510416666666667,54.6484375,0)" xlink:href="#af"/><use transform="matrix(0.006510416666666667,0,0,0.006510416666666667,62.825520833333336,0)" xlink:href="#L"/><use transform="matrix(0.006510416666666667,0,0,0.006510416666666667,71.12630208333334,0)" xlink:href="#M"/></g><path fill="#fff" d="M135 0v-1490h581c339 0 533 210 533 503 0 295-197 500-540 500H440V0H135zm305-733h220c186 0 274-104 274-254s-88-251-275-251H440v505" id="at"/><path fill="#fff" d="M628 22C291 22 81-210 81-554c0-346 210-578 547-578 336 0 547 232 547 578 0 344-211 576-547 576zm0-236c160 0 242-146 242-341 0-197-82-341-242-341S387-753 387-555c0 195 81 341 241 341" id="au"/><path fill="#fff" d="M572 22C302 22 117-98 78-306l279-48c29 105 101 156 224 156 114 0 185-48 185-115 0-118-228-130-337-155-215-49-322-150-322-317 0-215 187-347 470-347 265 0 424 116 466 298l-266 47c-24-76-87-130-196-130-98 0-174 46-174 113 0 56 38 95 144 117l201 40c216 44 320 143 320 302 0 220-207 367-500 367" id="av"/><path fill="#fff" d="M683-1118v229H474v562c0 71 29 104 102 104 23 0 73-7 95-13l43 225C647 9 580 16 520 16 296 16 174-96 174-301v-588H20v-229h154v-266h300v266h209" id="aw"/><path fill="#fff" d="M818-733v240H140v-240h678" id="ax"/><path fill="#fff" d="M440-1490V0H135v-1490h305" id="ay"/><path fill="#fff" d="M428-647V0H128v-1118h283l4 231c63-156 176-245 348-245 232 0 384 159 384 421V0H847v-659c0-139-76-222-202-222-128 0-217 86-217 234" id="az"/><path fill="#fff" d="M440 22C227 22 68-92 68-313c0-250 202-322 422-343 195-21 271-24 271-105 0-95-63-149-175-149-116 0-187 57-211 129l-275-46c57-194 237-305 487-305 240 0 474 108 474 379V0H777v-155h-10C713-51 605 22 440 22zm85-211c140 0 238-93 238-211v-121c-37 26-156 42-222 51-111 16-185 59-185 149 0 87 70 132 169 132" id="aA"/><path fill="#fff" d="M428-1490V0H128v-1490h300" id="aB"/><g id="y"><use transform="matrix(0.006510416666666667,0,0,0.006510416666666667,0,0)" xlink:href="#at"/><use transform="matrix(0.006510416666666667,0,0,0.006510416666666667,8.528645833333334,0)" xlink:href="#au"/><use transform="matrix(0.006510416666666667,0,0,0.006510416666666667,16.705729166666668,0)" xlink:href="#av"/><use transform="matrix(0.006510416666666667,0,0,0.006510416666666667,24.173177083333336,0)" xlink:href="#aw"/><use transform="matrix(0.006510416666666667,0,0,0.006510416666666667,28.834635416666668,0)" xlink:href="#ax"/><use transform="matrix(0.006510416666666667,0,0,0.006510416666666667,35.071614583333336,0)" xlink:href="#ay"/><use transform="matrix(0.006510416666666667,0,0,0.006510416666666667,38.81510416666667,0)" xlink:href="#az"/><use transform="matrix(0.006510416666666667,0,0,0.006510416666666667,47.11588541666667,0)" xlink:href="#av"/><use transform="matrix(0.006510416666666667,0,0,0.006510416666666667,54.583333333333336,0)" xlink:href="#aw"/><use transform="matrix(0.006510416666666667,0,0,0.006510416666666667,59.53125,0)" xlink:href="#aA"/><use transform="matrix(0.006510416666666667,0,0,0.006510416666666667,67.27213541666667,0)" xlink:href="#aB"/><use transform="matrix(0.006510416666666667,0,0,0.006510416666666667,70.88541666666667,0)" xlink:href="#aB"/></g><path fill="#fff" d="M571 0L49-1490h339c138 427 271 775 384 1244 111-471 237-815 371-1244h337L970 0H571" id="aC"/><path fill="#fff" d="M633 22C291 22 81-200 81-553c0-345 210-579 537-579 292 0 525 185 525 567v84H378c7 183 109 277 260 277 105 0 184-46 216-132l272 51C1071-99 893 22 633 22zM380-669h474c-15-146-94-237-233-237-143 0-229 99-241 237" id="aD"/><path fill="#fff" d="M128 0v-1118h290v195h12c54-169 184-238 367-200v268c-27-8-86-15-130-15-138 0-239 95-239 234V0H128" id="aE"/><path fill="#fff" d="M128 0v-1118h300V0H128zm150-1264c-91 0-165-68-165-154 0-85 74-154 165-154 90 0 165 69 165 154 0 86-75 154-165 154" id="aF"/><path fill="#fff" d="M750-1118v229H516V0H217v-889H20v-229h197v-86c0-238 156-356 363-356 94 0 178 20 215 31l-54 226c-25-7-61-15-100-15-123-3-131 84-125 200h234" id="aG"/><path fill="#fff" d="M628 22C291 22 81-210 81-554c0-346 210-578 547-578 265 0 455 142 497 372l-279 52c-25-116-99-188-215-188-160 0-244 139-244 341 0 200 84 341 244 341 116 0 193-74 217-195l279 51C1085-123 896 22 628 22" id="aH"/><g id="z"><use transform="matrix(0.006510416666666667,0,0,0.006510416666666667,0,0)" xlink:href="#aC"/><use transform="matrix(0.006510416666666667,0,0,0.006510416666666667,9.140625,0)" xlink:href="#aD"/><use transform="matrix(0.006510416666666667,0,0,0.006510416666666667,17.083333333333336,0)" xlink:href="#aE"/><use transform="matrix(0.006510416666666667,0,0,0.006510416666666667,22.610677083333336,0)" xlink:href="#aF"/><use transform="matrix(0.006510416666666667,0,0,0.006510416666666667,26.223958333333336,0)" xlink:href="#aG"/><use transform="matrix(0.006510416666666667,0,0,0.006510416666666667,31.640625,0)" xlink:href="#aF"/><use transform="matrix(0.006510416666666667,0,0,0.006510416666666667,35.25390625,0)" xlink:href="#aH"/><use transform="matrix(0.006510416666666667,0,0,0.006510416666666667,43.22916666666667,0)" xlink:href="#aA"/><use transform="matrix(0.006510416666666667,0,0,0.006510416666666667,50.970052083333336,0)" xlink:href="#aw"/><use transform="matrix(0.006510416666666667,0,0,0.006510416666666667,55.852864583333336,0)" xlink:href="#aF"/><use transform="matrix(0.006510416666666667,0,0,0.006510416666666667,59.466145833333336,0)" xlink:href="#au"/><use transform="matrix(0.006510416666666667,0,0,0.006510416666666667,67.64322916666667,0)" xlink:href="#az"/></g><path fill="#3a414a" d="M135 0v-1490h581c339 0 533 192 533 485 0 204-94 351-264 424L1302 0H964L680-532H440V0H135zm305-779h220c186 0 274-77 274-226 0-150-88-233-275-233H440v459" id="aI"/><path fill="#3a414a" d="M120 396l69-226c123 42 245 23 254-107l8-60L31-1118h319c87 288 199 559 259 872 72-308 185-583 277-872h315L726 132c-68 181-186 294-410 294-79 0-153-13-196-30" id="aJ"/><g id="A"><use transform="matrix(0.006510416666666667,0,0,0.006510416666666667,0,0)" xlink:href="#aI"/><use transform="matrix(0.006510416666666667,0,0,0.006510416666666667,8.593750000000002,0)" xlink:href="#T"/><use transform="matrix(0.006510416666666667,0,0,0.006510416666666667,16.536458333333336,0)" xlink:href="#P"/><use transform="matrix(0.006510416666666667,0,0,0.006510416666666667,20.149739583333336,0)" xlink:href="#O"/><use transform="matrix(0.006510416666666667,0,0,0.006510416666666667,27.890625,0)" xlink:href="#N"/><use transform="matrix(0.006510416666666667,0,0,0.006510416666666667,32.7734375,0)" xlink:href="#R"/><use transform="matrix(0.006510416666666667,0,0,0.006510416666666667,36.38671875,0)" xlink:href="#ae"/><use transform="matrix(0.006510416666666667,0,0,0.006510416666666667,44.381510416666664,0)" xlink:href="#R"/><use transform="matrix(0.006510416666666667,0,0,0.006510416666666667,47.994791666666664,0)" xlink:href="#N"/><use transform="matrix(0.006510416666666667,0,0,0.006510416666666667,53.170572916666664,0)" xlink:href="#aJ"/></g><g id="B"><use transform="matrix(0.006510416666666667,0,0,0.006510416666666667,0,0)" xlink:href="#aa"/><use transform="matrix(0.006510416666666667,0,0,0.006510416666666667,9.954427083333334,0)" xlink:href="#P"/><use transform="matrix(0.006510416666666667,0,0,0.006510416666666667,13.567708333333334,0)" xlink:href="#T"/><use transform="matrix(0.006510416666666667,0,0,0.006510416666666667,21.510416666666668,0)" xlink:href="#U"/><use transform="matrix(0.006510416666666667,0,0,0.006510416666666667,27.200520833333336,0)" xlink:href="#N"/><use transform="matrix(0.006510416666666667,0,0,0.006510416666666667,31.985677083333336,0)" xlink:href="#M"/></g><path fill="#3a414a" d="M786 20C389 20 94-260 94-744c0-487 299-766 692-766 339 0 597 194 641 529h-309c-28-162-156-258-326-258-233 0-388 179-388 495 0 323 157 493 387 493 170 0 298-97 328-259h309c-34 277-266 530-642 530" id="aK"/><g id="C"><use transform="matrix(0.006510416666666667,0,0,0.006510416666666667,0,0)" xlink:href="#aK"/><use transform="matrix(0.006510416666666667,0,0,0.006510416666666667,9.86328125,0)" xlink:href="#U"/><use transform="matrix(0.006510416666666667,0,0,0.006510416666666667,14.967447916666668,0)" xlink:href="#T"/><use transform="matrix(0.006510416666666667,0,0,0.006510416666666667,23.040364583333336,0)" xlink:href="#O"/><use transform="matrix(0.006510416666666667,0,0,0.006510416666666667,30.78125,0)" xlink:href="#N"/><use transform="matrix(0.006510416666666667,0,0,0.006510416666666667,35.53385416666667,0)" xlink:href="#T"/></g><g id="D"><use transform="matrix(0.006510416666666667,0,0,0.006510416666666667,0,0)" xlink:href="#X"/><use transform="matrix(0.006510416666666667,0,0,0.006510416666666667,9.6875,0)" xlink:href="#R"/><use transform="matrix(0.006510416666666667,0,0,0.006510416666666667,13.30078125,0)" xlink:href="#Y"/><use transform="matrix(0.006510416666666667,0,0,0.006510416666666667,21.8359375,0)" xlink:href="#O"/><use transform="matrix(0.006510416666666667,0,0,0.006510416666666667,29.576822916666668,0)" xlink:href="#L"/><use transform="matrix(0.006510416666666667,0,0,0.006510416666666667,37.87760416666667,0)" xlink:href="#O"/></g><path fill="#3a414a" d="M750 21c-371 0-615-218-615-544v-967h305v942c0 174 123 299 310 299s309-125 309-299v-942h306v967c0 326-247 544-615 544" id="aL"/><g id="E"><use transform="matrix(0.006510416666666667,0,0,0.006510416666666667,0,0)" xlink:href="#aL"/><use transform="matrix(0.006510416666666667,0,0,0.006510416666666667,9.759114583333334,0)" xlink:href="#M"/><use transform="matrix(0.006510416666666667,0,0,0.006510416666666667,17.2265625,0)" xlink:href="#T"/><use transform="matrix(0.006510416666666667,0,0,0.006510416666666667,25.169270833333336,0)" xlink:href="#U"/><use transform="matrix(0.006510416666666667,0,0,0.006510416666666667,30.598958333333336,0)" xlink:href="#M"/></g><g id="F"><use transform="matrix(0.006510416666666667,0,0,0.006510416666666667,0,0)" xlink:href="#O"/><use transform="matrix(0.006510416666666667,0,0,0.006510416666666667,7.740885416666667,0)" xlink:href="#L"/><use transform="matrix(0.006510416666666667,0,0,0.006510416666666667,16.041666666666668,0)" xlink:href="#Z"/></g><g id="G"><use transform="matrix(0.006510416666666667,0,0,0.006510416666666667,0,0)" xlink:href="#aa"/><use transform="matrix(0.006510416666666667,0,0,0.006510416666666667,9.8046875,0)" xlink:href="#M"/><use transform="matrix(0.006510416666666667,0,0,0.006510416666666667,17.272135416666668,0)" xlink:href="#M"/><use transform="matrix(0.006510416666666667,0,0,0.006510416666666667,24.739583333333336,0)" xlink:href="#R"/><use transform="matrix(0.006510416666666667,0,0,0.006510416666666667,28.352864583333336,0)" xlink:href="#ar"/><use transform="matrix(0.006510416666666667,0,0,0.006510416666666667,36.77734375,0)" xlink:href="#L"/></g><g id="H"><use transform="matrix(0.006510416666666667,0,0,0.006510416666666667,0,0)" xlink:href="#aI"/><use transform="matrix(0.006510416666666667,0,0,0.006510416666666667,8.593750000000002,0)" xlink:href="#af"/><use transform="matrix(0.006510416666666667,0,0,0.006510416666666667,16.770833333333336,0)" xlink:href="#P"/><use transform="matrix(0.006510416666666667,0,0,0.006510416666666667,20.384114583333336,0)" xlink:href="#T"/><use transform="matrix(0.006510416666666667,0,0,0.006510416666666667,28.326822916666675,0)" xlink:href="#M"/></g></defs></g></svg>